<?xml version="1.0" encoding="UTF-8"?>
<svg xmlns="http://www.w3.org/2000/svg" xmlns:xlink="http://www.w3.org/1999/xlink" width="4000px" height="4000px" viewBox="0 0 4000 4000" version="1.1">
<g id="surface1">
<path style=" stroke:none;fill-rule:nonzero;fill:rgb(0%,0%,0%);fill-opacity:1;" d="M 1420 1595 C 1372.917969 1606.457031 1339.582031 1649.792969 1339.582031 1700 L 1339.582031 1715.625 L 1274.167969 1715 C 1218.957031 1714.375 1206.667969 1714.792969 1195.625 1717.707031 C 1171.042969 1723.957031 1152.5 1738.957031 1141.042969 1762.5 L 1134.375 1776.042969 L 1133.75 1842.917969 L 1133.125 1910 L 1093.125 1910.832031 C 1057.082031 1911.457031 1052.082031 1912.082031 1042.917969 1916.25 C 1026.25 1923.75 1015.625 1933.957031 1007.917969 1949.582031 L 1001.042969 1963.542969 L 1001.042969 2000 C 1001.042969 2035 1001.25 2036.875 1006.457031 2048.125 C 1013.957031 2063.957031 1025.207031 2075.832031 1039.167969 2082.707031 C 1050.832031 2088.332031 1052.082031 2088.542969 1092.082031 2089.167969 L 1133.125 2089.792969 L 1134.375 2223.957031 L 1141.042969 2237.917969 C 1149.375 2255.625 1163.125 2269.375 1180.832031 2277.707031 L 1194.792969 2284.375 L 1339.582031 2284.375 L 1339.582031 2300 C 1339.582031 2331.042969 1349.792969 2355.832031 1371.042969 2377.292969 C 1385.417969 2391.667969 1403.125 2402.082031 1420.832031 2406.042969 C 1426.457031 2407.292969 1466.875 2408.332031 1522.917969 2408.332031 C 1600 2408.332031 1617.917969 2407.707031 1628.125 2405.207031 C 1664.167969 2395.832031 1696.457031 2361.875 1703.957031 2325.417969 C 1705.417969 2318.125 1706.25 2275.832031 1706.25 2202.082031 L 1706.25 2089.582031 L 2293.75 2089.582031 L 2293.75 2201.457031 C 2293.75 2325.207031 2294.167969 2328.957031 2306.875 2352.917969 C 2315.417969 2369.167969 2335.207031 2388.957031 2350.207031 2396.457031 C 2373.332031 2407.917969 2376.457031 2408.332031 2478.332031 2408.332031 C 2584.792969 2408.332031 2587.082031 2408.125 2611.667969 2391.875 C 2643.542969 2371.042969 2660.417969 2340.207031 2660.417969 2302.292969 L 2660.417969 2284.375 L 2728.75 2285 C 2794.167969 2285.625 2797.917969 2285.417969 2810.417969 2281.25 C 2841.875 2270.625 2861.25 2247.707031 2866.457031 2214.582031 C 2867.707031 2207.082031 2868.75 2176.042969 2868.75 2145.417969 L 2868.75 2090 L 2908.957031 2089.167969 C 2947.707031 2088.542969 2949.375 2088.332031 2960.625 2082.707031 C 2974.375 2076.042969 2988.125 2062.082031 2994.375 2048.332031 C 2998.542969 2039.375 2998.957031 2035 2998.957031 2000 C 2998.957031 1962.082031 2998.957031 1961.25 2993.125 1949.582031 C 2986.25 1935.417969 2974.375 1924.375 2958.542969 1916.875 C 2947.5 1911.667969 2944.792969 1911.457031 2907.917969 1910.832031 L 2869.167969 1910 L 2868.332031 1846.25 C 2867.292969 1774.792969 2866.667969 1770.417969 2852.917969 1750.625 C 2843.957031 1737.5 2827.082031 1724.792969 2811.875 1719.375 C 2802.292969 1716.042969 2793.125 1715.625 2730.625 1715.625 L 2660.417969 1715.625 L 2660.417969 1697.707031 C 2660.417969 1657.082031 2639.167969 1621.875 2603.75 1603.957031 C 2580.207031 1592.082031 2576.25 1591.667969 2477.082031 1591.875 C 2375.625 1591.875 2370 1592.5 2346.875 1606.25 C 2321.667969 1621.25 2301.667969 1648.957031 2296.042969 1676.667969 C 2294.582031 1683.75 2293.75 1726.667969 2293.75 1798.957031 L 2293.75 1910.417969 L 1706.25 1910.417969 L 1706.25 1797.292969 C 1706.25 1702.5 1705.832031 1682.292969 1703.125 1671.875 C 1693.332031 1634.375 1663.542969 1604.582031 1626.042969 1594.792969 C 1608.75 1590.417969 1438.75 1590.417969 1420 1595 Z M 1613.957031 1655.207031 C 1626.667969 1658.957031 1640.207031 1672.5 1643.542969 1684.582031 C 1645.207031 1690.207031 1645.832031 1788.75 1645.832031 2002.292969 L 1645.832031 2312.082031 L 1640 2323.125 C 1635.832031 2331.25 1631.457031 2336.042969 1623.957031 2340.625 L 1613.957031 2346.875 L 1526.25 2347.5 C 1426.875 2348.125 1427.5 2348.125 1412.917969 2332.5 C 1408.332031 2327.5 1403.542969 2319.792969 1402.292969 2315.417969 C 1398.75 2303.125 1399.167969 1696.042969 1402.5 1684.582031 C 1405.832031 1673.125 1421.667969 1657.5 1432.5 1654.582031 C 1437.292969 1653.332031 1472.917969 1652.5 1522.082031 1652.292969 C 1588.75 1652.082031 1605.207031 1652.707031 1613.957031 1655.207031 Z M 2568.957031 1655.207031 C 2580.207031 1659.167969 2590.832031 1669.167969 2596.042969 1680.207031 C 2599.792969 1688.125 2600 1701.042969 2600 1999.167969 C 2600 2226.042969 2599.375 2311.667969 2597.707031 2316.875 C 2593.75 2328.542969 2585.417969 2337.707031 2574.167969 2342.917969 L 2563.542969 2347.917969 L 2477.082031 2347.917969 C 2397.5 2347.917969 2390 2347.5 2382.082031 2343.957031 C 2370.207031 2338.542969 2358.957031 2324.792969 2356.25 2311.667969 C 2354.582031 2304.167969 2354.167969 2211.875 2354.582031 1993.75 C 2355.207031 1698.332031 2355.417969 1686.25 2359.167969 1679.167969 C 2366.25 1665.832031 2375.417969 1658.332031 2389.582031 1653.957031 C 2392.5 1653.125 2431.875 1652.292969 2477.292969 1652.292969 C 2546.667969 1652.082031 2561.25 1652.5 2568.957031 1655.207031 Z M 1329.375 1779.167969 C 1340 1785 1339.582031 1778.125 1339.582031 1999.792969 C 1339.582031 2128.75 1338.75 2207.917969 1337.5 2211.25 C 1336.457031 2214.167969 1332.5 2218.542969 1328.75 2220.832031 C 1322.292969 2224.792969 1318.957031 2225 1264.167969 2224.582031 L 1206.25 2223.957031 L 1200.625 2218.125 L 1194.792969 2212.5 L 1194.792969 1787.082031 L 1206.457031 1777.082031 L 1265.832031 1777.082031 C 1302.707031 1777.082031 1326.875 1777.917969 1329.375 1779.167969 Z M 2800.207031 1783.125 L 2806.25 1789.167969 L 2806.25 2210.417969 L 2800.207031 2217.082031 L 2794.167969 2223.957031 L 2736.667969 2224.582031 C 2687.292969 2225 2678.332031 2224.792969 2672.917969 2221.875 C 2660 2215.207031 2660.417969 2223.957031 2660.417969 2001.667969 C 2660.417969 1868.542969 2661.25 1796.25 2662.5 1791.25 C 2666.457031 1777.082031 2666.875 1777.082031 2733.957031 1777.082031 L 2794.167969 1777.082031 Z M 1132.917969 2000.417969 L 1133.542969 2029.167969 L 1100.207031 2029.167969 C 1059.167969 2029.167969 1060.417969 2030 1060.417969 1999.582031 C 1060.417969 1970.207031 1060 1970.625 1100.625 1971.25 L 1132.292969 1971.875 Z M 2293.75 2000 L 2293.75 2029.167969 L 2000.625 2028.75 L 1707.292969 2028.125 L 1706.667969 2002.292969 C 1706.457031 1987.917969 1706.667969 1975 1707.082031 1973.542969 C 1707.917969 1971.25 1762.082031 1970.832031 2001.042969 1970.832031 L 2293.75 1970.832031 Z M 2935.832031 1974.375 C 2938.957031 1977.292969 2939.582031 1981.042969 2939.582031 2000.207031 C 2939.582031 2017.707031 2938.957031 2023.332031 2936.25 2025.832031 C 2933.542969 2028.542969 2927.292969 2029.167969 2900.832031 2029.167969 L 2868.75 2029.167969 L 2868.75 1970.832031 L 2900.417969 1970.832031 C 2926.875 1970.832031 2932.5 1971.457031 2935.832031 1974.375 Z M 2935.832031 1974.375 "/>
</g>
</svg>
